<?xml version="1.0" encoding="utf-8"?>
<svg width="122" height="23" viewBox="0 0 122 23" fill="none" xmlns="http://www.w3.org/2000/svg" xmlns:bx="https://boxy-svg.com"><defs><bx:export><bx:file format="svg"/></bx:export></defs><path d="M 3.008 18.907 L 2.304 20.075 L 2.729 16.54 C 2.427 16.012 3.916 15.839 3.623 15.47 C 3.34 15.092 3.872 14.989 3.569 14.75 C 3.276 14.511 4.603 15.437 4.251 15.327 C 3.9 15.218 4.467 14.819 4.028 14.819 L 4.064 13.307 L 4.064 22 L 0.593 22 L 0.593 0.582 L 2.558 0.72 C 3.544 0.72 3.075 2.274 3.905 2.513 C 4.736 2.752 2.813 3.317 3.428 3.805 C 4.044 4.282 3.585 3.814 3.927 4.541 C 4.279 5.258 3.93 5.385 3.93 6.351 C 3.93 7.108 4.175 7.548 3.95 8.185 C 3.736 8.812 4.527 9.409 4.117 9.907 C 3.717 10.395 4.845 10.566 4.269 10.914 C 3.703 11.263 4.987 12.288 4.274 12.477 L 4.137 13.43 C 4.518 13.649 4.094 12.588 4.377 12.857 C 4.66 13.115 2.451 12.888 2.846 13.113 C 3.241 13.338 4.083 14.465 2.356 15.581 C 0.629 16.697 2.613 17.369 2.916 17.837 L 3.008 18.907 Z M 4.064 3.464 L 4.064 10.425 L 3.666 9.944 C 4.203 9.944 3.596 9.996 4.045 9.827 C 4.504 9.657 3.251 8.932 3.583 8.614 C 3.915 8.295 3.83 7.976 4.015 7.518 C 4.201 7.06 3.95 4.211 3.95 3.643 C 3.95 2.618 4.869 3.946 4.234 3.369 C 3.6 2.791 5.231 3.395 4.039 3.395 L 4.064 3.464 Z M 35.94 22 L 32.117 22 L 30.227 16.548 L 21.965 16.548 L 20.149 22 L 18.196 19.732 L 24.207 0.582 L 28.132 0.582 L 35.94 22 Z M 29.304 13.651 L 26.389 5.107 C 26.301 4.829 26.209 4.38 26.111 3.763 L 26.052 3.763 C 25.965 4.331 25.867 4.779 25.759 5.107 L 22.874 13.651 L 29.304 13.651 Z M 49.578 3.599 L 41.727 3.599 L 41.727 10.036 L 48.963 10.036 L 48.963 13.038 L 41.727 13.038 L 41.727 22 L 38.24 22 L 38.24 0.582 L 49.578 0.582 L 49.578 3.599 Z" fill="#FD3D57" style=""/><path d="M67.3768 21.1211C65.7947 21.9414 63.827 22.3516 61.4734 22.3516C58.4266 22.3516 55.9852 21.3896 54.1492 19.4658C52.3133 17.542 51.3953 15.0176 51.3953 11.8926C51.3953 8.5332 52.4256 5.81836 54.4861 3.74805C56.5564 1.67773 59.1688 0.642578 62.323 0.642578C64.3543 0.642578 66.0389 0.930664 67.3768 1.50684V4.96387C65.9607 4.12402 64.3982 3.7041 62.6893 3.7041C60.4139 3.7041 58.5682 4.43164 57.1521 5.88672C55.7459 7.3418 55.0428 9.28516 55.0428 11.7168C55.0428 14.0312 55.702 15.877 57.0203 17.2539C58.3387 18.6211 60.0721 19.3047 62.2205 19.3047C64.2029 19.3047 65.9217 18.8359 67.3768 17.8984V21.1211ZM88.017 22H84.1937L82.3041 16.6533H74.0424L72.226 22H68.4174L76.2836 0.994141H80.2094L88.017 22ZM81.3812 13.8115L78.4662 5.43262C78.3783 5.15918 78.2855 4.71973 78.1879 4.11426H78.1293C78.0414 4.6709 77.9437 5.11035 77.8363 5.43262L74.9506 13.8115H81.3812ZM106.548 22H102.476L99.1211 16.375C98.8184 15.8574 98.5205 15.418 98.2275 15.0566C97.9443 14.6855 97.6514 14.3828 97.3486 14.1484C97.0557 13.9141 96.7334 13.7432 96.3818 13.6357C96.0303 13.5283 95.6348 13.4746 95.1953 13.4746H93.7891V22H90.3174V0.994141H97.2314C98.2178 0.994141 99.126 1.11133 99.9561 1.3457C100.786 1.58008 101.509 1.93652 102.124 2.41504C102.739 2.88379 103.218 3.47461 103.56 4.1875C103.911 4.89062 104.087 5.71582 104.087 6.66309C104.087 7.40527 103.975 8.08887 103.75 8.71387C103.535 9.3291 103.223 9.88086 102.812 10.3691C102.412 10.8477 101.924 11.2578 101.348 11.5996C100.781 11.9414 100.142 12.2051 99.4287 12.3906V12.4492C99.8096 12.6641 100.142 12.9033 100.425 13.167C100.708 13.4209 100.977 13.6846 101.23 13.958C101.484 14.2314 101.733 14.5439 101.978 14.8955C102.231 15.2373 102.51 15.6377 102.812 16.0967L106.548 22ZM93.7891 3.82129V10.6475H96.6895C97.2266 10.6475 97.7197 10.5645 98.1689 10.3984C98.6279 10.2324 99.0234 9.99316 99.3555 9.68066C99.6875 9.36816 99.9463 8.9873 100.132 8.53809C100.317 8.08887 100.41 7.58594 100.41 7.0293C100.41 6.02344 100.093 5.2373 99.458 4.6709C98.8232 4.10449 97.9102 3.82129 96.7188 3.82129H93.7891ZM121.182 3.95312H115.147V22H111.661V3.95312H105.64V0.994141H121.182V3.95312Z" fill="#2B2D42"/><rect x="0.493" y="0.712" width="50.331" height="21.743" style="paint-order: stroke; stroke: rgb(255, 255, 255); fill: rgb(255, 255, 255);"/><text style="fill: rgb(255, 4, 4); font-family: Arial, sans-serif; font-size: 28px; font-weight: 700; white-space: pre;" x="1.499" y="21.247">IDN</text></svg>